<?xml version="1.0" encoding="iso-8859-1"?>
<!-- Generator: Adobe Illustrator 19.0.0, SVG Export Plug-In . SVG Version: 6.00 Build 0)  -->
<svg version="1.1" id="Layer_1" xmlns="http://www.w3.org/2000/svg" xmlns:xlink="http://www.w3.org/1999/xlink" x="0px" y="0px"
	 viewBox="0 0 512 512" style="enable-background:new 0 0 512 512;" xml:space="preserve">
<g>
	<g>
		<path d="M463.935,496.327h-77.803v-60.01h31.16h3.802c22.758,0,41.273-18.516,41.273-41.273c0-4.328-3.508-7.837-7.837-7.837
			c-4.329,0-7.837,3.509-7.837,7.837c0,11.641-7.814,21.486-18.471,24.582c-0.972-2.807-2.892-5.219-5.56-6.696
			c-25.763-14.266-42.073-42.064-49.273-56.739h26.45h6.98c22.758,0,41.273-18.516,41.273-41.273c0-4.328-3.508-7.837-7.837-7.837
			c-4.329,0-7.837,3.509-7.837,7.837c0,12.824-9.478,23.474-21.797,25.316c-0.802-2.99-2.622-5.603-5.245-7.232
			c-23.01-14.287-37.569-42.343-43.921-56.938h24.571h3.077c22.758,0,41.273-18.516,41.273-41.273c0-4.328-3.508-7.837-7.837-7.837
			c-4.329,0-7.837,3.509-7.837,7.837c0,11.62-7.786,21.452-18.413,24.566c-0.82-2.557-2.378-4.789-4.559-6.286
			c-20.803-14.274-33.979-42.439-39.702-57.009h19.594c22.758,0,41.272-18.516,41.272-41.273c0-4.328-3.508-7.837-7.837-7.837
			c-4.329,0-7.837,3.509-7.837,7.837c0,13.309-10.21,24.274-23.207,25.485c-0.559-2.63-1.831-5.118-4-6.91
			c-17.404-14.378-28.407-43.108-33.073-57.554h1.436h4.186c22.758,0,41.273-18.516,41.273-41.273c0-4.328-3.508-7.837-7.837-7.837
			c-4.329,0-7.837,3.509-7.837,7.837c0,11.71-7.906,21.602-18.659,24.636c-0.976-2.349-2.713-4.382-5.073-5.76l-25.958-15.135
			c-3.739-2.18-8.538-0.917-10.718,2.822c-2.181,3.739-0.917,8.537,2.821,10.718l14.268,8.32H188.345l68.251-39.797l22.302,13.005
			c3.74,2.179,8.537,0.916,10.718-2.822c2.181-3.739,0.917-8.537-2.821-10.718l-22.36-13.038V7.837c0-4.328-3.508-7.837-7.837-7.837
			c-4.329,0-7.837,3.509-7.837,7.837v38.928L168.76,93.413c-2.361,1.377-4.099,3.411-5.074,5.759
			c-10.754-3.033-18.66-12.925-18.66-24.637c0-4.328-3.508-7.837-7.837-7.837c-4.329,0-7.837,3.509-7.837,7.837
			c0,22.758,18.516,41.273,41.273,41.273h4.158c-4.667,14.444-15.67,43.175-33.075,57.554c-2.162,1.786-3.431,4.265-3.994,6.886
			c-12.87-1.334-22.94-12.244-22.94-25.462c0-4.328-3.508-7.837-7.837-7.837c-4.329,0-7.837,3.509-7.837,7.837
			c0,22.758,18.515,41.273,41.272,41.273h19.321c-5.725,14.572-18.903,42.737-39.701,57.008c-2.216,1.52-3.793,3.8-4.603,6.408
			c-10.846-2.973-18.843-12.912-18.843-24.688c0-4.328-3.508-7.837-7.837-7.837c-4.329,0-7.837,3.509-7.837,7.837
			c0,22.758,18.516,41.274,41.273,41.274h3.548h24.845c-6.352,14.596-20.912,42.652-43.92,56.938
			c-2.624,1.629-4.443,4.242-5.245,7.232c-12.319-1.843-21.797-12.493-21.797-25.316c0-4.328-3.508-7.837-7.837-7.837
			c-4.329,0-7.837,3.509-7.837,7.837c0,22.758,18.516,41.273,41.273,41.273h6.98h26.476c-2.007,4.118-4.653,9.113-7.985,14.539
			c-2.265,3.687-1.112,8.514,2.576,10.779c3.688,2.264,8.513,1.112,10.779-2.576c5.753-9.366,9.672-17.632,11.885-22.742h200.22
			c5.575,12.883,21.416,44.559,49.445,64.453H106.44c6.982-4.958,13.665-10.97,19.962-17.963c2.896-3.217,2.636-8.172-0.58-11.068
			c-3.214-2.894-8.17-2.636-11.068,0.58c-7.939,8.817-16.49,15.794-25.417,20.737c-2.668,1.477-4.588,3.889-5.56,6.696
			c-10.657-3.095-18.471-12.94-18.471-24.581c0-4.328-3.508-7.837-7.837-7.837c-4.329,0-7.837,3.509-7.837,7.837
			c0,22.758,18.516,41.273,41.273,41.273h3.802h29.615v60.01H48.065c-4.329,0-7.837,3.509-7.837,7.837
			c0,4.328,3.508,7.837,7.837,7.837h87.907h238.508h89.454c4.329,0,7.837-3.509,7.837-7.837
			C471.771,499.835,468.264,496.327,463.935,496.327z M157.303,180.263c19.062-19.532,29.885-50.878,33.894-64.453h129.331
			c4.009,13.571,14.831,44.919,33.894,64.453H338.95H172.777H157.303z M153.043,340.517h-29.91
			c25.082-19.796,39.287-51.345,44.375-64.453h84.313H256h21.682c4.329,0,7.837-3.509,7.837-7.837s-3.508-7.837-7.837-7.837H256
			h-4.18h-87.637h-28.083c22.712-19.648,35.613-50.975,40.337-64.328H335.29c4.721,13.351,17.621,44.678,40.336,64.328h-27.809H320
			h-7.124h-3.064c-4.329,0-7.837,3.509-7.837,7.837s3.508,7.837,7.837,7.837h3.064H320h24.492
			c5.086,13.104,19.291,44.656,44.375,64.453h-29.91H153.043z M165.094,496.327h-25.098v-28.16h25.098V496.327z M165.094,452.493
			h-25.098v-16.176h25.098V452.493z M205.584,496.327h-24.816v-28.16h24.816V496.327z M205.584,452.493h-24.816v-16.176h24.816
			V452.493z M248.163,496.327h-26.906v-28.16h26.906V496.327z M248.163,452.493h-26.906v-16.176h26.906V452.493z M287.775,496.327
			h-23.939v-28.16h23.939V496.327z M287.775,452.493h-23.939v-16.176h23.939V452.493z M328.276,496.327h-24.827v-28.16h24.827
			V496.327z M328.276,452.493h-24.827v-16.176h24.827V452.493z M370.458,496.327h-26.509v-28.16h26.509V496.327z M370.458,452.493
			h-26.509v-16.176h26.509V452.493z"/>
	</g>
</g>
<g>
</g>
<g>
</g>
<g>
</g>
<g>
</g>
<g>
</g>
<g>
</g>
<g>
</g>
<g>
</g>
<g>
</g>
<g>
</g>
<g>
</g>
<g>
</g>
<g>
</g>
<g>
</g>
<g>
</g>
</svg>
